<?xml version="1.0" encoding="utf-8"?>
<!-- Generator: Adobe Illustrator 27.3.1, SVG Export Plug-In . SVG Version: 6.00 Build 0)  -->
<svg version="1.1" id="Layer_1" xmlns="http://www.w3.org/2000/svg" xmlns:xlink="http://www.w3.org/1999/xlink" x="0px" y="0px"
	 viewBox="0 0 450 200" enable-background="new 0 0 450 200" xml:space="preserve">
<g>
	<path fill="#FFFFFF" d="M125.752,85.775c-0.274-2.296-0.574-4.1-0.902-5.412c-0.328-1.092-1.122-2.269-2.378-3.527
		c-1.258-1.255-2.378-1.993-3.362-2.214c-0.985-0.328-1.914-0.492-2.789-0.492c-3.39,0-5.96,1.64-7.708,4.92
		c-0.548,1.094-0.848,2.243-0.902,3.445c-0.057,1.204,0.082,3.336,0.41,6.396c0.546,3.936,0.738,7.682,0.574,11.235
		c-0.164,3.554-0.574,6.314-1.23,8.282c-1.204,3.608-2.898,6.834-5.084,9.677c-2.188,2.844-4.156,4.264-5.905,4.264
		c-1.422,0-2.844-1.419-4.264-4.264c-1.094-2.076-1.778-3.962-2.05-5.659c-0.274-1.694-0.41-4.564-0.41-8.61v-7.381l-1.148-1.804
		c-1.532-2.514-3.772-3.936-6.724-4.264c-1.422,0-2.571,0.138-3.445,0.41c-0.876,0.274-1.86,0.848-2.952,1.722
		c-0.984,0.876-1.722,1.886-2.214,3.034c-0.492,1.148-1.066,3.09-1.722,5.823c-1.422,6.342-3.198,11.672-5.33,15.991
		c-2.132,4.32-4.074,6.478-5.823,6.478c-0.766,0-1.394-0.271-1.886-0.82c-0.492-0.546-1.122-1.583-1.886-3.116
		c-2.516-4.811-3.608-12.137-3.28-21.977c0.218-6.011,0.738-11.287,1.558-15.826c0.82-4.536,1.886-7.898,3.198-10.087
		c2.296-3.608,2.132-6.831-0.492-9.676c-0.876-0.875-1.722-1.502-2.542-1.887c-0.82-0.382-1.942-0.574-3.362-0.574
		c-2.078,0-3.828,0.602-5.248,1.805c-1.422,1.204-2.788,3.226-4.101,6.068c-0.984,2.078-1.914,4.51-2.788,7.298
		c-0.876,2.788-1.64,5.659-2.296,8.611c-0.656,2.952-1.176,5.904-1.558,8.856c-0.384,2.952-0.574,5.686-0.574,8.201
		c0,7.982,1.091,15.226,3.28,21.73c2.186,6.506,5.139,11.344,8.857,14.515c1.312,1.204,2.842,2.214,4.592,3.034
		c1.747,0.82,3.387,1.34,4.92,1.558c0.435,0.11,0.956,0.164,1.558,0.164c0.599,0,1.173,0,1.722,0c0.874,0,1.666,0,2.379,0
		c0.71,0,1.337-0.107,1.886-0.328c2.296-0.546,4.646-1.558,7.052-3.034c2.404-1.476,4.371-3.253,5.904-5.331l1.64-2.132l2.789,2.788
		c2.296,2.297,4.592,3.937,6.888,4.921c2.296,0.984,4.92,1.476,7.872,1.476c4.265,0,8.119-1.091,11.563-3.28
		c3.444-2.187,6.396-4.946,8.856-8.283c2.461-3.334,4.483-6.995,6.069-10.988c1.583-3.991,2.649-7.844,3.198-11.563
		c0.218-1.53,0.354-3.469,0.41-5.822c0.054-2.351,0-4.757-0.164-7.217S126.023,88.071,125.752,85.775z"/>
	<path fill="#FFFFFF" d="M180.938,75.033c-1.64-1.148-3.418-2.05-5.33-2.706c-1.914-0.656-3.69-1.038-5.33-1.148
		c-3.062,0-5.768,0.356-8.119,1.066c-2.352,0.712-4.784,1.996-7.298,3.854l-2.296,1.804l-0.328-1.804
		c-0.328-2.731-1.369-4.81-3.116-6.232c-1.205-1.202-2.788-1.804-4.756-1.804c-1.313,0-2.599,0.356-3.855,1.066
		c-1.258,0.712-2.27,1.722-3.034,3.034c-0.328,0.548-0.548,1.066-0.656,1.558c-0.11,0.492-0.192,1.23-0.246,2.214
		c-0.057,0.984-0.057,2.378,0,4.183c0.054,1.804,0.136,4.238,0.246,7.298c0.108,1.312,0.218,3.062,0.328,5.248
		c0.107,2.188,0.189,4.566,0.246,7.135c0.054,2.57,0.136,5.248,0.246,8.036c0.107,2.788,0.218,5.494,0.328,8.118
		c0.218,5.141,0.382,9.677,0.492,13.613c0.107,3.936,0.218,6.124,0.328,6.561c0.436,2.188,1.448,4.074,3.034,5.658
		c1.584,1.586,3.527,2.378,5.823,2.378c1.858,0,3.58-0.599,5.166-1.804c1.583-1.202,2.596-2.731,3.034-4.592
		c0.328-0.875,0.517-1.994,0.574-3.363c0.054-1.366-0.028-4.289-0.246-8.774c-0.22-2.842-0.356-5.986-0.41-9.431
		c-0.057-3.444-0.139-6.15-0.246-8.118l-0.164-7.216l1.64-2.625c0.546-0.656,1.255-1.501,2.132-2.542
		c0.874-1.038,1.83-2.05,2.87-3.034c1.039-0.984,2.133-1.829,3.281-2.542c1.148-0.71,2.214-1.066,3.198-1.066
		c1.091,0,2.186,0.492,3.28,1.476c1.968,1.64,4.1,2.46,6.396,2.46c0.656,0,1.148-0.054,1.476-0.164
		c4.483-1.091,6.832-3.936,7.053-8.528c0-1.968-0.548-3.716-1.64-5.249C183.945,77.521,182.579,76.181,180.938,75.033z"/>
	<path fill="#FFFFFF" d="M242.194,116.198c-0.274-4.318-0.41-8.717-0.41-13.202c0-4.483,0.082-8.857,0.246-13.121
		c0.164-4.264,0.41-7.872,0.738-10.825c0.656-4.482-0.492-7.651-3.444-9.512c-0.656-0.435-1.231-0.71-1.723-0.82
		c-0.492-0.108-1.23-0.164-2.214-0.164c-3.28,0-5.633,1.368-7.052,4.1c-0.438,0.766-0.876,2.214-1.312,4.346
		c-0.438,2.132-0.848,4.566-1.23,7.299c-0.384,2.734-0.738,5.604-1.066,8.61c-0.328,3.008-0.548,5.878-0.656,8.611
		c-0.11,2.406-0.22,4.156-0.328,5.248c-0.11,1.094-0.438,2.406-0.984,3.936c-1.094,3.5-2.242,6.26-3.445,8.283
		c-1.204,2.024-2.406,3.034-3.608,3.034c-2.188,0-3.882-1.776-5.084-5.331c-1.205-3.551-1.804-8.664-1.804-15.334
		c0-6.451,0.546-10.768,1.64-12.957c0.546-1.419,0.71-2.952,0.492-4.592c-0.22-1.64-0.82-3.007-1.804-4.101
		c-1.422-1.53-3.336-2.296-5.74-2.296c-2.625,0-4.648,0.876-6.069,2.625c-3.39,4.264-5.248,12.628-5.576,25.092
		c-0.218,4.92-0.028,8.938,0.574,12.054c0.6,3.117,1.666,6.261,3.198,9.431c1.858,3.828,4.536,6.97,8.037,9.431
		c3.498,2.46,7.434,3.69,11.808,3.69c3.499,0,6.615-0.71,9.349-2.132l1.804-0.82l0.164,0.984c0.546,2.296,1.558,4.238,3.034,5.822
		c1.476,1.586,3.469,2.378,5.986,2.378c3.388,0,5.958-1.64,7.709-4.92c0.546-1.091,0.82-2.542,0.82-4.346
		c0-1.805-0.328-4.893-0.984-9.267C242.821,124.263,242.465,120.519,242.194,116.198z"/>
	<path fill="#FFFFFF" d="M301.563,116.198c-0.274-4.318-0.41-8.717-0.41-13.202c0-4.483,0.082-8.857,0.246-13.121
		c0.164-4.264,0.41-7.872,0.738-10.825c0.656-4.482-0.492-7.651-3.444-9.512c-0.656-0.435-1.231-0.71-1.723-0.82
		c-0.492-0.108-1.23-0.164-2.214-0.164c-3.28,0-5.632,1.368-7.052,4.1c-0.438,0.766-0.876,2.214-1.312,4.346
		c-0.438,2.132-0.848,4.566-1.23,7.299c-0.385,2.734-0.738,5.604-1.066,8.61c-0.328,3.008-0.549,5.878-0.656,8.611
		c-0.11,2.406-0.22,4.156-0.328,5.248c-0.11,1.094-0.438,2.406-0.984,3.936c-1.094,3.5-2.242,6.26-3.445,8.283
		c-1.204,2.024-2.406,3.034-3.608,3.034c-2.188,0-3.882-1.776-5.084-5.331c-1.204-3.551-1.804-8.664-1.804-15.334
		c0-6.451,0.546-10.768,1.64-12.957c0.546-1.419,0.71-2.952,0.492-4.592c-0.22-1.64-0.82-3.007-1.804-4.101
		c-1.422-1.53-3.336-2.296-5.74-2.296c-2.625,0-4.648,0.876-6.069,2.625c-3.39,4.264-5.248,12.628-5.576,25.092
		c-0.218,4.92-0.028,8.938,0.574,12.054c0.599,3.117,1.665,6.261,3.198,9.431c1.858,3.828,4.536,6.97,8.037,9.431
		c3.498,2.46,7.434,3.69,11.808,3.69c3.499,0,6.615-0.71,9.349-2.132l1.804-0.82l0.164,0.984c0.546,2.296,1.558,4.238,3.034,5.822
		c1.476,1.586,3.469,2.378,5.986,2.378c3.388,0,5.958-1.64,7.708-4.92c0.546-1.091,0.82-2.542,0.82-4.346
		c0-1.805-0.328-4.893-0.984-9.267C302.191,124.263,301.835,120.519,301.563,116.198z"/>
	<path fill="#FFFFFF" d="M367.494,73.065c-4.102-3.223-8.94-4.838-14.516-4.838c-5.029,0-9.24,1.45-12.628,4.346
		c-3.391,2.898-6.179,6.478-8.364,10.743c-2.188,4.264-3.829,8.83-4.922,13.694c-1.093,4.867-1.86,9.267-2.296,13.203
		c-0.109,1.312-0.273,2.46-0.492,3.444c0,0.549-0.056,1.04-0.164,1.476c-0.328,0.11-0.712,0.164-1.148,0.164
		c-0.328,0.11-0.712,0.192-1.148,0.246c-0.437,0.056-0.929,0.192-1.476,0.41c-1.421,0.221-3.009,0.52-4.756,0.902
		c-1.749,0.384-3.362,0.958-4.838,1.723c-1.476,0.766-2.731,1.75-3.772,2.952c-1.038,1.204-1.558,2.734-1.558,4.592
		c0,2.078,0.712,3.854,2.132,5.33c1.422,1.476,3.171,2.214,5.248,2.214c0.656,0,1.337-0.054,2.05-0.164
		c0.711-0.107,1.501-0.271,2.378-0.492c0.875-0.218,1.777-0.41,2.706-0.574c0.927-0.164,1.666-0.246,2.214-0.246
		c0.219,0,0.41-0.026,0.574-0.082c0.164-0.054,0.301-0.082,0.41-0.082c0.547,0,0.845,0.328,0.902,0.984
		c0.054,0.656,0.189,2.242,0.41,4.757c0.107,1.968,0.328,4.702,0.656,8.2c0.328,3.498,0.681,7.052,1.066,10.661
		c0.383,3.608,0.792,6.97,1.23,10.086c0.437,3.116,0.82,5.274,1.148,6.478c0.437,2.404,1.421,4.319,2.954,5.741
		c1.529,1.419,3.552,2.132,6.068,2.132c1.857,0,3.552-0.548,5.084-1.64c1.529-1.094,2.567-2.624,3.116-4.592
		c0.108-0.438,0.189-0.848,0.246-1.23c0.053-0.384,0.082-0.876,0.082-1.477c0-0.602-0.056-1.368-0.164-2.296
		c-0.111-0.93-0.275-2.16-0.492-3.69c-0.439-2.952-0.902-6.396-1.394-10.332c-0.492-3.937-0.902-7.709-1.23-11.317
		c-0.328-3.608-0.574-6.668-0.738-9.185c-0.164-2.514-0.193-3.826-0.082-3.936c0-0.107,0.656-0.19,1.968-0.246
		c1.312-0.054,2.896-0.19,4.756-0.41c1.859-0.108,3.581-0.246,5.166-0.41c1.583-0.164,2.649-0.3,3.198-0.41
		c2.624-0.763,4.51-2.378,5.658-4.838s1.121-4.945-0.082-7.462c-1.64-3.281-4.592-4.921-8.856-4.921
		c-0.765,0-1.804,0.028-3.116,0.082c-1.312,0.057-2.569,0.138-3.772,0.246l-4.264,0.164v-1.312c0-0.546,0.082-1.366,0.246-2.46
		c0.164-1.091,0.354-2.321,0.574-3.69c0.217-1.366,0.463-2.706,0.738-4.018c0.271-1.312,0.574-2.404,0.902-3.281
		c0.545-2.186,1.337-4.289,2.378-6.314c1.039-2.022,2.105-3.58,3.198-4.674c0.763-0.874,1.312-1.394,1.64-1.558
		c0.328-0.164,0.927-0.246,1.804-0.246c1.531,0,2.813,0.328,3.854,0.984c1.039,0.656,1.558,1.532,1.558,2.624
		c0,1.86,0.846,3.554,2.542,5.084c1.695,1.532,3.417,2.296,5.168,2.296c0.984,0,2.132-0.271,3.444-0.82
		c1.749-0.874,3.035-2.239,3.855-4.1c0.82-1.858,1.01-3.879,0.574-6.068C374.136,80.473,371.594,76.291,367.494,73.065z"/>
	<path fill="#FFFFFF" d="M381.022,73.803c0.328-0.656,0.928-1.476,1.804-2.46c0.875-0.984,1.829-1.968,2.87-2.952
		c1.039-0.984,2.132-1.94,3.28-2.87c1.148-0.927,2.104-1.612,2.87-2.05c0.763-0.328,1.148-0.82,1.148-1.476
		c0-0.656-0.273-0.985-0.82-0.985c-0.765,0-1.749,0.411-2.952,1.231c-1.204,0.82-2.405,1.778-3.608,2.87
		c-1.204,1.094-2.323,2.242-3.362,3.444c-1.04,1.204-1.831,2.132-2.378,2.788c-0.546,0.876-0.902,1.696-1.066,2.46
		c-0.164,0.766-0.025,1.204,0.41,1.312c0.109,0,0.191,0.028,0.246,0.082c0.056,0.057,0.138,0.082,0.246,0.082
		C380.038,75.279,380.474,74.787,381.022,73.803z"/>
	<path fill="#FFFFFF" d="M417.431,115.788c-0.548-0.763-1.64-2.075-3.28-3.936c-1.64-1.858-3.5-3.879-5.576-6.068
		c-2.079-2.186-3.746-3.936-5.002-5.248c-1.259-1.312-2.161-2.433-2.706-3.363c-0.548-0.927-0.902-1.804-1.066-2.624
		c-0.164-0.82-0.246-1.776-0.246-2.87c0-2.075,0.599-4.236,1.804-6.478c1.201-2.239,3.06-3.362,5.576-3.362
		c0.656,0,1.256,0.274,1.804,0.82c0.545,0.438,0.846,0.876,0.902,1.312c0.053,0.438,0.189,1.75,0.41,3.936
		c0.107,2.078,0.217,3.39,0.328,3.936c0.107,0.549,0.436,1.258,0.984,2.132c1.529,2.188,3.608,3.28,6.232,3.28
		c3.387,0,5.63-1.202,6.724-3.608c1.092-2.403,1.64-5.084,1.64-8.036c0-1.858-0.057-3.223-0.164-4.1
		c-0.109-0.875-0.328-1.912-0.656-3.117c-3.28-9.184-9.623-13.776-19.023-13.776c-5.576,0-10.39,1.696-14.434,5.084
		c-4.045,3.39-6.944,7.708-8.692,12.957c-2.077,6.232-2.024,12.52,0.164,18.86c0.984,2.516,2.322,4.92,4.018,7.216
		c1.695,2.296,4.401,5.304,8.118,9.021c4.266,4.264,6.833,7.108,7.71,8.528c0.984,1.75,1.337,3.336,1.066,4.756
		c-0.275,1.422-1.177,2.46-2.706,3.116c-0.767,0.328-1.476,0.492-2.132,0.492c-1.095,0-2.243-0.599-3.446-1.804
		c-2.405-2.076-4.701-3.116-6.888-3.116c-1.093,0-1.913,0.11-2.46,0.328c-2.517,0.766-4.346,2.352-5.494,4.756
		c-1.148,2.407-1.174,4.813-0.082,7.217c1.203,2.516,3.141,4.728,5.822,6.642c2.679,1.911,5.601,3.141,8.774,3.69
		c0.435,0.108,1.312,0.164,2.624,0.164c1.094,0,2.187-0.056,3.282-0.164c1.092-0.11,2.076-0.274,2.952-0.492
		c2.403-0.548,4.809-1.586,7.216-3.116c2.403-1.532,4.317-3.172,5.74-4.92c3.171-4.154,4.781-8.664,4.838-13.531
		C422.16,125.439,420.602,120.601,417.431,115.788z"/>
	<path fill="#FFFFFF" d="M316.467,85.374c6.623,1.681,12.417-1.978,11.272-7.365c-1.922-9.033-7.489-15.41-15.792-19.272
		c-3.155-1.468-5.683-0.002-6.42,3.393c-0.856,3.947-0.314,7.869,0.546,11.426C307.644,79.466,310.482,83.855,316.467,85.374z"/>
	<path fill="#FFFFFF" d="M334.518,62.235c4.225-3.932,3.839-8.837,2.372-13.839c-1.016-3.827-2.548-7.429-4.512-10.863
		c-2.727-4.767-6.939-6.523-10.16-4.164c-8.647,6.331-9.35,19.22-1.453,26.633C325.825,64.752,330.825,65.672,334.518,62.235z"/>
	<path fill="#FFFFFF" d="M371.734,68.521c7.777-0.934,12.233-8.586,9.815-17.596c-1.008-3.209-2.946-6.713-5.496-9.872
		c-3.373-4.178-6.804-4.667-8.996-0.933c-4.333,7.38-4.497,15.346-1.947,23.325C366.054,66.4,368.059,68.963,371.734,68.521z"/>
	<path fill="#FFFFFF" d="M342.748,51.137c3.38,6.369,11.573,7.508,15.446,2.147c6.138-8.495,1.797-21.993-8.333-25.908
		c-8.094-3.128-11.981-0.702-11.943,7.759c0.013,2.759,0.402,5.946,1.575,8.843C339.61,44.267,342.352,50.39,342.748,51.137z"/>
	<path fill="#FFFFFF" d="M52.77,146.211c-0.385-0.164-1.34-0.466-2.87-0.902c-1.86-0.328-3.444-0.874-4.756-1.64
		c-1.205-0.874-2.543-2.075-4.019-3.608c-1.476-1.53-2.542-2.896-3.198-4.1c-0.876-1.641-1.532-2.461-1.968-2.461l-0.328,0.164
		c-0.876,0.328-0.766,1.476,0.328,3.445c1.092,1.968,2.624,3.882,4.592,5.74c1.53,1.422,3.224,2.649,5.085,3.69
		c1.858,1.038,3.826,1.558,5.904,1.558c0.763,0,1.255-0.274,1.476-0.82C53.233,146.728,53.152,146.375,52.77,146.211z"/>
	<path fill="#FFFFFF" d="M159.126,67.407c0.328,0,1.038-0.272,2.132-0.82c1.203-0.656,2.76-1.148,4.675-1.476
		c1.911-0.328,3.744-0.492,5.494-0.492c2.186,0,3.715,0.22,4.592,0.656c0.874,0.328,1.53,0.492,1.968,0.492
		c0.763,0,1.148-0.271,1.148-0.82c0-0.546-0.548-1.091-1.64-1.64c-0.876-0.436-1.615-0.71-2.214-0.82
		c-0.602-0.108-1.886-0.164-3.854-0.164c-2.406,0.109-4.428,0.302-6.068,0.574c-1.64,0.274-3.336,0.848-5.085,1.722
		c-1.968,0.876-2.57,1.696-1.804,2.46C158.688,67.299,158.905,67.407,159.126,67.407z"/>
	<path fill="#FFFFFF" d="M213.985,145.309c-0.384-0.107-1.614-0.271-3.69-0.492c-5.248-0.656-9.732-3.059-13.448-7.216
		c-1.422-1.531-2.242-2.297-2.46-2.297c-0.11,0-0.274,0.11-0.492,0.328c-0.438,0.438-0.492,0.985-0.164,1.641
		c0.436,0.984,1.173,1.968,2.214,2.952c1.038,0.984,2.157,1.914,3.362,2.788c1.203,0.877,2.486,1.64,3.855,2.296
		c1.366,0.656,2.596,1.091,3.69,1.312c0.763,0.218,1.612,0.382,2.542,0.492c0.927,0.108,1.722,0.164,2.378,0.164
		c1.202-0.11,1.911-0.192,2.132-0.246c0.218-0.057,0.382-0.302,0.492-0.738C214.502,145.744,214.366,145.416,213.985,145.309z"/>
	<path fill="#FFFFFF" d="M273.354,145.309c-0.385-0.107-1.615-0.271-3.69-0.492c-5.248-0.656-9.732-3.059-13.449-7.216
		c-1.422-1.531-2.242-2.297-2.46-2.297c-0.11,0-0.274,0.11-0.492,0.328c-0.438,0.438-0.492,0.985-0.164,1.641
		c0.436,0.984,1.174,1.968,2.214,2.952c1.038,0.984,2.157,1.914,3.362,2.788c1.203,0.877,2.486,1.64,3.855,2.296
		c1.366,0.656,2.596,1.091,3.69,1.312c0.763,0.218,1.612,0.382,2.542,0.492c0.927,0.108,1.722,0.164,2.378,0.164
		c1.202-0.11,1.911-0.192,2.132-0.246c0.218-0.057,0.382-0.302,0.492-0.738C273.871,145.744,273.736,145.416,273.354,145.309z"/>
	<path fill="#FFFFFF" d="M40.769,52.982c2.175,2.003,5.598-0.156,4.717-2.977c-0.364-1.411-3.865-7.274-4.534-8.535
		c-0.37-0.816-1.995-4.974-2.594-5.715c-1.87-2.152-5.423-2.369-6.959,0.159c-0.461,0.744-0.545,1.561-0.628,2.378
		c-0.084,0.965,0.285,1.93,0.731,2.821C32.615,43.265,38.893,51.278,40.769,52.982z"/>
	<path fill="#FFFFFF" d="M35.685,54.698c-1.057-0.295-6.025-2.814-7.003-3.332c-1.506-0.74-2.932-1.853-4.518-2.222
		c-5.508-1.403-7.845,5.879-2.493,7.876c0.527,0.223,3.767,1.481,4.295,1.703c2.638,0.961,5.432,1.477,8.303,1.771
		C37.593,60.935,38.928,55.807,35.685,54.698z"/>
	<path fill="#FFFFFF" d="M435.865,159.883c-1.71-1.719-10.107-7.472-12.408-8.534c-2.676-1.256-5.292,1.832-3.603,4.257
		c0.772,1.237,5.873,5.775,6.891,6.777c0.599,0.667,3.398,4.144,4.192,4.671c2.431,1.49,5.884,0.629,6.589-2.244
		c0.216-0.848,0.05-1.652-0.116-2.457C437.2,161.407,436.558,160.598,435.865,159.883z"/>
	<path fill="#FFFFFF" d="M440.456,141.755c-0.57-0.054-4.038-0.28-4.608-0.333c-2.805-0.123-5.625,0.225-8.451,0.808
		c-3.302,0.579-3.033,5.871,0.393,5.953c1.096-0.036,6.592,0.872,7.68,1.072c1.659,0.253,3.354,0.885,4.977,0.761
		C446.122,149.697,446.161,142.05,440.456,141.755z"/>
</g>
</svg>
